<?xml version="1.0" encoding="UTF-8"?>
<svg width="30px" height="30px" viewBox="0 0 30 30" version="1.1" xmlns="http://www.w3.org/2000/svg" xmlns:xlink="http://www.w3.org/1999/xlink">
    <title>icon/illus/time@1,5x</title>
    <g id="Desktop" stroke="none" stroke-width="1" fill="none" fill-rule="evenodd">
        <g id="Desktop-·-Recipe-page_V2" transform="translate(-676.000000, -755.000000)" fill="#fff">
            <g id="02_Info-Recipe" transform="translate(510.000000, 755.000000)">
                <g id="Time" transform="translate(160.000000, 0.000000)">
                    <g id="icons/information-icons/clock" transform="translate(6.000000, 0.000000)">
                        <g id="illustrations_pixels_preptime_02_24px">
                            <path d="M16,0.5 C17.7769357,0.647465877 19.5128835,1.11320795 21.125,1.875 C23.0075997,2.86753006 24.7343339,4.13099408 26.25,5.625 C27.7366063,7.01877702 28.816723,8.79016854 29.375,10.75 C29.4858001,11.0275379 29.5286575,11.3275396 29.5,11.625 L29.5,11.625 L29.5,12.125 C29.6698811,12.9046906 29.7120965,13.7067843 29.625,14.5 C29.5225689,14.8657338 29.4803503,15.2457017 29.5,15.625 C29.375,16.125 29.375,16.625 29.25,17.25 C28.951078,18.2363885 28.5749144,19.1976955 28.125,20.125 L28.125,20.125 L27.75,20.75 C26.9988467,22.2206756 26.0295484,23.5692646 24.875,24.75 C23.7408892,25.7983678 22.5290987,26.759443 21.25,27.625 C19.5283611,28.6191315 17.6067574,29.2169638 15.625,29.375 L15.625,29.375 L14,29.375 C12.5587334,29.4320245 11.1301512,29.0857015 9.875,28.375 L9.875,28.375 L9.25,28.125 L8,27.25 L6.75,26.5 L6.625,26.5 C5.53829959,25.9297441 4.59736456,25.1171184 3.875,24.125 L3.875,24.125 L2.375,21.75 C2.1349791,21.4586865 1.96403822,21.1168048 1.875,20.75 L1.875,20.75 L1.5,20 C0.742478722,18.6722075 0.394555141,17.1500419 0.5,15.625 C0.492276279,13.863927 0.96787179,12.1344887 1.875,10.625 L1.875,10.625 L2,10.625 L3.5,8 C4.11661204,6.98184944 4.87411223,6.05601588 5.75,5.25 C6.53377248,4.39969074 7.41482329,3.64450433 8.375,3 C9.36426133,2.28768574 10.4615918,1.73902051 11.625,1.375 L11.625,1.375 L12.25,1.125 C12.9182403,0.798891581 13.6366119,0.587605817 14.375,0.5 L14.375,0.5 Z M16,1.875 L15,1.875 C13.318089,2.06814643 11.6977775,2.62246351 10.25,3.5 L10.25,3.5 L10.125,3.5 C9.30560638,3.9384518 8.54883662,4.48500773 7.875,5.125 C6.60753987,6.27697409 5.43693058,7.53119833 4.375,8.875 C2.69523023,10.8061533 1.84218851,13.3203816 2,15.875 C1.91837552,18.1469483 2.57633733,20.3840185 3.875,22.25 L3.875,22.25 L4.125,22.5 C4.25,22.625 4.375,22.75 4.375,22.875 C4.87438936,23.7979212 5.60709762,24.57373 6.5,25.125 L6.5,25.125 L7.25,25.625 C8.11891478,26.3115148 9.08868886,26.859648 10.125,27.25 C11.4474459,27.8888247 12.9077567,28.1894769 14.375,28.125 L14.375,28.125 L14.7151526,28.1107969 C16.7512769,27.9887238 18.6956323,27.2053877 20.25,25.875 C20.8481152,25.4192881 21.5265613,25.080065 22.25,24.875 C22.9025703,24.7696088 23.4868401,24.4100581 23.875,23.875 L23.875,23.875 L24.25,23.5 L25,22.625 C26.5292007,20.9853775 27.5684727,18.9501365 28,16.75 C28.2624841,15.7720265 28.3886757,14.7624935 28.375,13.75 C28.5512124,11.7382077 27.9718993,9.73289332 26.75,8.125 C25.9135963,6.9377728 24.902114,5.88414538 23.75,5 C22.2645599,3.81632995 20.5678299,2.92554667 18.75,2.375 C17.8621043,2.07712352 16.9359229,1.90872689 16,1.875 L16,1.875 Z M13.8607128,21.4752993 C14.0836907,21.4405409 14.3132399,21.4931833 14.5,21.625 C14.75,21.875 15,22.125 15,22.375 C14.9812952,22.5511998 15.0255782,22.7283319 15.125,22.875 C15.125,23.25 15.25,23.625 15.25,24.25 L15.25,24.25 L15.25,24.625 C15.125,25.125 14.625,25.75 14.125,25.75 L14.125,25.75 L14,25.75 C13.5468001,25.633234 13.2351994,25.2177664 13.25,24.75 C13.25,24.125 13.125,22.75 13.125,22.5 C13.125,22.25 13.125,21.625 13.75,21.5 L13.75,21.5 Z M19.625,11 C19.9426937,10.4981088 20.5697103,10.2891033 21.125,10.5 C21.366022,10.5463209 21.5691305,10.7076384 21.6688101,10.9319177 C21.7684898,11.156197 21.7521271,11.4150573 21.625,11.625 C21.5538344,12.1257715 21.2833675,12.5765497 20.875,12.875 L20.875,12.875 L20.75,12.875 C19.6459467,13.9071161 18.4768843,14.8674174 17.25,15.75 C16.8619769,15.9725184 16.5220567,16.2699486 16.25,16.625 L16.25,16.625 L15.625,17.375 C15.1747936,17.6870088 14.663554,17.9000253 14.125,18 L14.125,18 L13.875,18 C13.25,18 12.875,17.375 12.625,17 C11.7300841,15.7472148 10.7261771,14.5759899 9.625,13.5 L9.625,13.5 L9.375,13.5 L9,13.125 C8.72318107,13.0689696 8.49042892,12.8827679 8.375,12.625 C8.35487694,12.327796 8.39746473,12.0296814 8.5,11.75 C8.63110647,11.5163446 8.85049123,11.3450723 9.10897544,11.2745766 C9.36745965,11.2040809 9.64342171,11.2402587 9.875,11.375 C10.3856199,11.5700585 10.8226118,11.9196519 11.125,12.375 L11.125,12.375 L12.125,13.375 L13.625,15 L14,15.25 L14.875,14.875 L16,14.125 C16.5116198,13.8203093 16.9750319,13.4411539 17.375,13 L17.375,13 L18.875,11.625 Z M22.625,15.125 C23.335008,14.8856903 24.1149173,14.9774444 24.75,15.375 L24.75,15.375 L25.125,15.375 C25.5,15.625 25.375,16 25.375,16.25 L25.375,16.25 L25.375,16.625 C25.3937048,16.8011998 25.3494218,16.9783319 25.25,17.125 L25.25,17.125 L22.625,17.125 C22.0977839,16.9819425 21.7052594,16.5403524 21.625,16 C21.625,15.375 22.25,15.25 22.625,15.125 Z M5.35498681,14.4943841 L5.5,14.5 C5.875,14.5 6.125,14.75 6.5,14.875 L6.5,14.875 L6.75,14.875 C7.03691054,14.9427782 7.27040264,15.1504777 7.3711511,15.427536 C7.47189957,15.7045942 7.4263586,16.0137603 7.25,16.25 C7.25,16.75 6.875,17 6.375,17 L6.375,17 L5.875,17 C5,17.125 4.25,17 4.125,16.125 C3.99534959,15.7325476 4.09133685,15.3006049 4.375,15 C4.63624111,14.6474195 5.06323229,14.4576456 5.5,14.5 Z M15,4.25 C15.4383649,4.24550692 15.8123962,4.56610512 15.875,5 C16.2158581,6.1068097 16.1717978,7.29643681 15.75,8.375 C15.6436618,8.62111363 15.3922006,8.77199034 15.125,8.75 L15.125,8.75 L14.875,8.75 L14.25,8.5 C14.1505782,8.35333186 14.1062952,8.17619978 14.125,8 C14.144455,7.78397272 14.1010459,7.56692711 14,7.375 L14,7.375 L14,5 C14.1509937,4.57077864 14.5456693,4.27477196 15,4.25 Z" id="Combined-Shape"></path>
                        </g>
                    </g>
                </g>
            </g>
        </g>
    </g>
</svg>