<?xml version="1.0" encoding="UTF-8"?>
<svg width="30px" height="29px" viewBox="0 0 30 29" version="1.1" xmlns="http://www.w3.org/2000/svg" xmlns:xlink="http://www.w3.org/1999/xlink">
    <title>icon/illus/difficulty@1,5x</title>
    <g id="Desktop" stroke="none" stroke-width="1" fill="none" fill-rule="evenodd">
        <g id="Desktop-·-Recipe-page_V2" transform="translate(-816.000000, -755.000000)" fill="#fff">
            <g id="02_Info-Recipe" transform="translate(510.000000, 755.000000)">
                <g id="Difficulty" transform="translate(291.000000, 0.000000)">
                    <g id="icons/information-icons/chef-hat" transform="translate(15.000000, 0.000000)">
                        <g id="illustrations_pixels_difficulty_24px" transform="translate(-0.000000, 0.000000)">
                            <path d="M29.636,12.648 C29.2848962,11.5762332 28.690759,10.6001506 27.9,9.796 C27.2640182,9.07851902 26.3755739,8.63429685 25.42,8.556 L22.94,8.556 L22.94,8.184 C23.0641223,7.52849064 23.0641223,6.85550936 22.94,6.2 C22.6284917,5.06407981 22.079008,4.00738036 21.328,3.1 L20.956,2.728 L20.584,2.728 C20.3141198,2.37578899 19.9769189,2.08073825 19.592,1.86 L18.972,1.86 L17.484,0.868 L16.864,0.62 C15.9818834,0.336753928 15.0401756,0.293949029 14.136,0.496 L13.392,0.496 C12.5987856,0.7601366 11.8472379,1.13591046 11.16,1.612 L10.788,1.86 C10.1102239,2.25406765 9.58577169,2.86592861 9.3,3.596 L9.052,3.968 C8.78106174,4.37701216 8.61106972,4.84449019 8.556,5.332 C8.47414387,5.52845471 8.432,5.73917406 8.432,5.952 L7.812,5.952 C6.94611276,5.46514517 5.93941549,5.29006738 4.96,5.456 C4.34372214,5.63678184 3.78710643,5.97931458 3.348,6.448 C2.17480476,7.32020161 1.2372652,8.47081835 0.62,9.796 C0.268280228,10.7460683 0.14096534,11.7645874 0.248,12.772 C0.272470403,13.9957029 0.614292221,15.1920792 1.24,16.244 C1.77100165,17.4373307 2.75127503,18.3730462 3.968,18.848 C4.588,19.096 4.712,19.468 4.836,20.088 C4.96,20.708 4.712,20.956 4.712,21.452 L4.712,25.916 C4.67545966,26.3048106 4.76222603,26.6952593 4.96,27.032 C5.28442905,27.6993771 5.9541647,28.1299215 6.696,28.148 L8.804,28.148 C9.52918447,28.353435 10.2834075,28.4372375 11.036,28.396 L18.228,28.396 L20.212,28.644 L22.072,28.644 C22.196,28.644 22.568,28.52 22.568,28.272 C22.568,28.024 22.692,28.148 22.692,28.024 C22.7922375,27.8336083 22.8352994,27.6182991 22.816,27.404 L23.188,24.552 L23.188,24.056 C23.3533367,23.4082868 23.3954009,22.7352593 23.312,22.072 L23.312,22.32 L23.684,22.32 L25.544,21.824 L26.164,21.452 L27.032,20.956 C27.5068528,20.7632587 27.9009155,20.4129807 28.148,19.964 C28.148,19.84 28.272,19.716 28.272,19.592 C28.6901338,19.1136624 29.0254156,18.5688296 29.264,17.98 C29.264,17.732 29.388,17.608 29.388,17.484 C29.6928361,16.6086102 29.8193219,15.6810477 29.76,14.756 L29.76,14.26 C29.7906599,13.719542 29.7489575,13.1774105 29.636,12.648 Z M23.064,11.408 L23.064,10.664 C22.962285,10.386556 22.9200379,10.0908264 22.94,9.796 L24.428,9.796 C25.1124758,9.68507831 25.8141998,9.81665156 26.412,10.168 C27.2178125,10.6818724 27.8624612,11.4124743 28.272,12.276 C28.5976554,12.8866039 28.768,13.5679822 28.768,14.26 C28.8042278,15.5284529 28.5936596,16.7918617 28.148,17.98 C27.9927166,18.7066661 27.6001014,19.3610247 27.032,19.84 C26.2719399,20.3749357 25.4359846,20.7929134 24.552,21.08 C23.5846612,21.3928188 22.5433388,21.3928188 21.576,21.08 C21.2692701,20.9945593 20.9476854,21.1553517 20.832,21.452 C20.7370294,21.5573515 20.7102331,21.7075413 20.7629108,21.8392357 C20.8155886,21.9709301 20.938572,22.061208 21.08,22.072 C21.2484794,22.2235252 21.4862016,22.2710696 21.7,22.196 L22.32,22.196 L22.32,22.816 C22.3243044,24.3530368 22.1998695,25.887734 21.948,27.404 C21.9672994,27.6182991 21.9242375,27.8336083 21.824,28.024 L18.6,28.024 C18.724,28.024 18.724,28.024 18.724,27.9 L18.724,27.9 C18.8260868,27.5797947 18.8681259,27.2434819 18.848,26.908 C18.8287006,26.6937009 18.8717625,26.4783917 18.972,26.288 C19.096,24.924 19.096,23.56 19.096,22.32 L19.096,19.84 C19.096,19.344 18.972,18.972 18.724,18.848 L17.98,18.848 C17.6479175,19.0035174 17.4493885,19.3509431 17.484,19.716 C17.3611695,20.0778607 17.3611695,20.4701393 17.484,20.832 L17.484,21.576 C17.3808695,22.3984168 17.3394204,23.2273977 17.36,24.056 L17.36,27.28 C17.36,27.404 17.484,27.652 17.484,27.776 L14.384,27.776 C14.3918297,27.6804426 14.4362519,27.5915982 14.508,27.528 L14.384,27.528 L14.384,27.156 L14.508,27.156 L14.508,22.196 C14.5900213,21.4914818 14.5480543,20.7780431 14.384,20.088 L14.26,20.088 C14.26,19.964 14.136,19.716 14.012,19.716 L13.64,19.716 C13.349819,19.8532126 13.1590497,20.1393665 13.144,20.46 L13.144,21.08 C13.0201278,22.1925627 13.0201278,23.3154373 13.144,24.428 L13.144,24.8 C13.2058576,25.8324076 13.2058576,26.8675924 13.144,27.9 L10.292,27.9 L10.292,27.28 C10.1682116,26.4164135 10.1682116,25.5395865 10.292,24.676 L10.292,19.344 C10.2671664,19.0803297 10.1823353,18.8258364 10.044,18.6 C9.796,18.352 9.548,18.352 9.424,18.476 C9.3,18.6 9.052,18.724 9.052,18.972 L9.052,18.972 L9.052,19.22 C8.928,20.46 8.928,21.7 8.928,22.816 L8.928,25.296 C8.99015578,25.9144422 8.99015578,26.5375578 8.928,27.156 L8.308,27.156 L6.82,26.908 C6.22949055,26.7616698 5.78753454,26.2706076 5.704,25.668 L6.448,25.668 C6.696,25.668 6.944,25.544 6.944,25.296 C6.944,25.048 6.944,25.172 6.82,25.048 C6.82,24.9795167 6.76448331,24.924 6.696,24.924 L6.324,24.924 L5.828,24.676 L5.828,24.676 C5.7562519,24.6124018 5.71182968,24.5235574 5.704,24.428 L5.704,24.056 L6.2,24.056 C6.24707859,24.1093821 6.31482386,24.1399634 6.386,24.1399634 C6.45717614,24.1399634 6.52492141,24.1093821 6.572,24.056 C6.70896662,24.056 6.82,23.9449666 6.82,23.808 C6.944,23.684 6.82,23.56 6.82,23.436 C6.82,23.312 6.696,23.188 6.448,23.188 L5.704,23.188 C5.704,22.94 5.704,22.94 5.828,22.94 L6.448,22.94 C6.62400216,22.8406371 6.72211102,22.6444194 6.696,22.444 C6.572,22.196 6.448,22.072 6.2,22.072 L5.58,22.072 C5.67862639,21.9265052 5.72255514,21.7507902 5.704,21.576 L5.704,21.204 L7.192,21.204 C7.39744993,21.204 7.564,21.0374499 7.564,20.832 C7.564,20.6265501 7.39744993,20.46 7.192,20.46 L7.068,20.46 C6.89943332,20.2175055 6.61913557,20.0773567 6.324,20.088 L5.828,20.088 L5.828,19.716 L6.448,19.716 C6.572,19.592 6.572,19.468 6.696,19.468 L6.696,19.22 L6.944,19.22 L6.944,18.972 C6.82,18.724 6.448,18.724 6.324,18.724 L5.084,18.724 L4.712,18.352 C4.65218635,18.0586636 4.39131167,17.8499639 4.092,17.856 C3.1,17.732 2.604,16.988 2.108,16.244 C1.8085764,15.7027765 1.59917583,15.1164549 1.488,14.508 L1.984,14.756 L2.604,14.756 C2.728,14.756 2.852,14.632 2.852,14.384 L2.852,14.136 L1.24,14.136 L1.24,13.764 L2.108,13.764 C2.232,13.764 2.604,13.888 2.728,13.516 L2.728,12.4 L2.232,12.152 L1.24,12.152 L1.24,11.78 L2.108,11.78 L2.108,11.78 C2.48,11.408 2.108,11.16 1.86,11.16 L1.488,11.16 C1.364,11.16 1.24,11.16 1.24,11.036 L1.364,11.036 L1.364,10.416 L1.488,10.416 L2.108,10.788 C2.356,10.912 2.604,10.912 2.728,10.664 C2.82132147,10.5529112 2.8613251,10.406532 2.83747329,10.2634211 C2.81362148,10.1203103 2.72830588,9.99481762 2.604,9.92 L2.48,9.92 L1.86,9.672 L1.86,9.672 C1.86,9.548 1.984,9.424 2.108,9.3 L2.232,9.3 L2.728,9.548 C2.852,9.548 3.1,9.672 3.224,9.424 C3.32790401,9.35507788 3.39036926,9.23868481 3.39036926,9.114 C3.39036926,8.98931519 3.32790401,8.87292212 3.224,8.804 L2.852,8.804 C2.7802519,8.74040182 2.73582968,8.65155739 2.728,8.556 L2.852,8.556 C2.852,8.432 2.976,8.432 2.976,8.308 L3.1,8.308 L3.472,8.556 L3.72,8.556 C3.968,8.68 4.092,8.68 4.216,8.432 C4.34,8.184 4.216,8.06 3.968,7.936 L3.968,7.936 C4.092,7.688 4.216,7.812 4.216,7.936 L4.588,7.936 C4.836,8.184 5.084,8.184 5.208,7.936 C5.332,7.688 5.208,7.564 5.084,7.44 L5.456,7.44 C5.60271748,7.66881855 5.82055611,7.84308946 6.076,7.936 L6.448,7.936 C6.448,7.936 6.572,7.812 6.448,7.564 L6.448,7.564 C6.448,7.63248331 6.50351669,7.688 6.572,7.688 L7.316,7.688 C7.70843732,7.77367688 8.05902016,7.99279116 8.308,8.308 C8.42660201,8.67205202 8.80214185,8.88664621 9.176,8.804 C9.3,8.804 9.424,8.804 9.548,8.556 C9.5595172,8.42023172 9.51467473,8.28570431 9.424,8.184 L9.796,8.184 C9.8075172,8.04823172 9.76267473,7.91370431 9.672,7.812 C9.54768203,7.40801442 9.54768203,6.97598558 9.672,6.572 L10.044,5.828 C10.044,5.704 10.168,5.58 10.168,5.456 C10.4455556,4.89425932 10.8751752,4.42167779 11.408,4.092 C12.2634818,3.42611279 13.3016153,3.03681275 14.384,2.976 L16.244,2.976 C17.0299905,3.14290752 17.7837532,3.43603746 18.476,3.844 C19.590814,4.35403016 20.5371274,5.17130081 21.204,6.2 C21.7164752,7.06791199 22.0140768,8.0457461 22.072,9.052 L22.072,9.424 C22.1127828,10.5457257 22.0296124,11.6685258 21.824,12.772 C21.8054449,12.9467902 21.8493736,13.1225052 21.948,13.268 C22.196,13.392 22.32,13.516 22.568,13.392 L23.064,11.408 Z" id="Shape"></path>
                        </g>
                    </g>
                </g>
            </g>
        </g>
    </g>
</svg>