<svg width="71" height="18" viewBox="0 0 71 18" fill="none" xmlns="http://www.w3.org/2000/svg">
<g clip-path="url(#clip0_0_45)">
<path d="M23.7989 8.10533L25.1228 4.96679L23.9674 2.18299L23.945 2.12903H24.0031H24.4678H24.4936L24.5036 2.15326L25.4529 4.48073L26.4021 2.15326L26.4121 2.12903H26.438H26.9026H26.9607L26.9383 2.18299L25.783 4.96665L27.1251 8.10574L29.6176 2.10632L29.6276 2.08223H29.6533H30.1737H30.2324L30.2093 2.1366L27.3842 8.78245L27.3741 8.80612H27.3487H26.9119H26.8863L26.8762 8.78245L25.462 5.44954L24.0388 8.78258L24.0287 8.80612H24.0031H23.5663H23.5409L23.5308 8.78244L20.7149 2.1366L20.6919 2.08222H20.7506H21.2617H21.2874L21.2974 2.10618L23.7989 8.10532V8.10533ZM10.2302 1.70326C10.0837 1.82316 10.0127 1.82784 10.058 1.90754C10.1043 1.98931 10.1188 2.02427 10.003 2.03006C9.88728 2.03597 9.8061 2.01849 9.84382 2.07672C9.88141 2.13509 9.94509 2.20502 9.74529 2.23709C9.54562 2.26916 9.00414 2.46752 8.67696 2.49382C8.34978 2.51997 8.2194 2.65707 8.17608 2.765C8.13262 2.87292 7.72426 3.05366 7.61711 2.8904C7.5101 2.72714 7.37972 2.47633 7.44341 2.33923C7.75269 1.67367 7.05815 2.17459 6.87324 1.90878C7.95933 1.5897 9.25561 1.41598 10.2302 1.70326L10.2302 1.70326ZM12.1579 2.29256C14.6702 3.33957 15.9974 5.9089 16.3647 7.36212C15.9233 7.71383 15.0724 8.47699 14.98 7.96478C14.8875 7.45242 14.7265 7.98611 14.5644 7.56613C14.4022 7.14628 13.7305 6.77296 14.2169 7.40287C14.7034 8.03278 14.3546 7.75471 14.5862 8.08137C14.8178 8.40802 15.0264 8.59468 15.3969 8.47795C15.7675 8.36136 15.6981 8.71128 15.3738 9.0612C15.0495 9.41125 14.401 10.041 14.4241 10.8343C14.4473 11.6276 14.6788 11.5808 14.1693 12.0008C13.6597 12.4208 14.0534 12.5374 13.706 12.8641C13.3586 13.1907 13.4513 13.564 12.8259 13.8439C12.2005 14.1239 12.4089 14.1239 12.2236 13.5174C12.0383 12.9107 11.5751 12.6075 11.6214 11.8608C11.6678 11.1143 11.9689 10.5543 11.5982 10.1578C11.2277 9.76117 11.6214 9.01453 11.0655 9.0612C10.5095 9.10786 9.81472 9.59778 9.28199 8.68788C8.74926 7.77811 8.44805 7.03148 9.00401 6.68156C9.55997 6.33164 9.53674 5.79506 9.69882 5.65506C9.86105 5.51507 10.278 5.86499 11.2045 5.6084C12.1309 5.35167 11.5288 5.72499 12.1309 6.00498C12.7332 6.28497 12.9186 6.05165 13.0575 5.95832C13.1964 5.86499 14.3083 5.70159 13.5903 5.42174C12.7719 5.10265 12.5281 5.28629 12.4271 4.77793C12.3346 4.31141 11.1937 4.49862 11.5836 4.66753C11.9736 4.83629 12.3163 5.04842 12.1542 5.08338C11.9921 5.11835 11.8485 5.32304 11.7252 5.27872C11.602 5.23425 12.0499 5.14175 11.8068 4.97835C11.5635 4.81509 11.4014 4.8502 11.3202 4.6868C11.2392 4.52354 11.2277 4.48844 11.2277 4.48844C11.2277 4.48844 10.9497 4.32518 10.6022 4.83849C10.2548 5.35167 9.76839 5.53833 9.6294 5.00175C9.49041 4.46517 10.8802 4.51184 10.3011 4.16192C9.72206 3.812 10.8571 3.67187 11.1351 3.64861C11.4129 3.62534 12.1309 2.85544 11.6446 2.97203C11.1582 3.08862 10.9497 3.15869 10.5328 2.8787C10.1224 2.60312 11.7316 2.71186 12.1579 2.29257L12.1579 2.29256ZM1.57016 7.67391C1.95993 5.80441 4.19539 2.77201 6.10106 2.28692C6.58746 2.28692 6.40405 2.98951 6.6588 3.43276C6.91355 3.87601 6.58924 4.13273 5.52378 4.29599C4.45833 4.45939 4.62055 5.18249 4.11093 5.41596C3.6013 5.64914 3.32332 6.27905 3.16123 5.99906C2.99914 5.71921 2.48951 5.76587 2.16521 6.67577C1.8409 7.58554 2.21413 7.43453 2.47722 7.36088C2.7403 7.28737 2.6747 7.66675 2.92944 8.0866C3.18419 8.50659 3.76352 8.28551 4.31935 8.12225C4.87531 7.95886 5.68602 8.37884 5.8481 8.82209C6.01032 9.26534 5.8481 9.6154 6.95988 10.012C8.07166 10.4086 7.72426 10.5486 7.56217 11.0385C7.39995 11.5285 7.33052 11.8084 7.00621 12.275C6.68204 12.7415 7.16843 13.0215 6.68204 13.2549C6.19551 13.4882 5.63968 13.9082 5.66278 14.3514C5.68601 14.7947 6.05665 15.5413 5.3848 15.028C4.71308 14.5147 4.48157 13.6048 4.38891 12.2983C4.29625 10.9918 3.94871 11.6684 3.46231 11.1084C2.97591 10.5486 3.01076 9.81363 3.20756 9.4403C3.4045 9.06712 3.54349 8.63543 3.13814 8.58877C2.73278 8.5421 2.55908 8.43721 2.39686 8.01722C2.23477 7.59724 2.17682 7.87723 1.8178 7.81886C1.69015 7.79821 1.61226 7.75526 1.57016 7.67391L1.57016 7.67391ZM20.7389 15.2686H50.3428V15.2707H50.3617V15.2626C50.5629 15.2524 50.736 15.1738 50.8823 15.0279C51.0392 14.8712 51.1176 14.679 51.1176 14.4529C51.1176 14.2321 51.0405 14.0427 50.8835 13.886C50.7997 13.8001 50.6292 13.6761 50.3722 13.5099C50.0691 13.345 49.8595 13.2046 49.743 13.0875C49.5604 12.9034 49.4698 12.6828 49.4698 12.4251C49.4698 12.1635 49.5604 11.9414 49.743 11.7561C49.9025 11.5931 50.0923 11.5018 50.3096 11.4821C50.3096 11.4747 51.3866 11.4781 51.4889 11.4781V11.8268C51.1175 11.8268 50.7408 11.8253 50.4242 11.8228C50.2659 11.8217 50.1056 11.8979 49.992 12.0109C49.8783 12.124 49.8216 12.2617 49.8216 12.4251C49.8216 12.5846 49.8783 12.7209 49.992 12.8353C50.0583 12.902 50.1989 13.003 50.4127 13.1392C50.7509 13.3259 50.9917 13.4908 51.1339 13.6338C51.3584 13.8627 51.4708 14.1353 51.4708 14.4529C51.4708 14.7772 51.3584 15.0537 51.1339 15.2814C50.9093 15.509 50.6374 15.622 50.3167 15.622C50.2796 15.622 50.2432 15.6205 50.2073 15.6174H20.7388V15.2686L20.7389 15.2686ZM8.99894 0C11.4662 0 13.7001 1.0075 15.3172 2.63623C16.9339 4.26483 17.9343 6.51493 17.9343 9.00016C17.9343 11.4854 16.9339 13.7355 15.3172 15.3641C13.7001 16.9927 11.4662 18.0002 8.99894 18.0002C6.53169 18.0002 4.2976 16.9928 2.68071 15.3641C1.06366 13.7355 0.0635376 11.4853 0.0635376 9.00016C0.0635376 6.51507 1.06366 4.26482 2.68071 2.63623C4.29761 1.00749 6.53169 0 8.99894 0ZM14.8943 3.06214C13.3857 1.54243 11.3012 0.602518 8.99894 0.602518C6.69652 0.602518 4.61207 1.54243 3.10342 3.06214C1.59476 4.58158 0.661596 6.68109 0.661596 9.00016C0.661596 11.3192 1.59476 13.4188 3.10342 14.9382C4.61208 16.4579 6.69652 17.3978 8.99894 17.3978C11.3012 17.3978 13.3857 16.4578 14.8943 14.9382C16.4029 13.4186 17.3361 11.3191 17.3361 9.00016C17.3361 6.68109 16.4029 4.58156 14.8943 3.06214ZM53.097 11.6061V9.93676H53.4527V11.6061H54.2455V11.9658H53.4527V15.5265H53.097V11.9658H52.3042V11.6061H53.097ZM56.8025 15.5824C56.3168 15.5824 55.9286 15.438 55.6417 15.1477C55.3536 14.8575 55.2048 14.4909 55.1967 14.0495V11.6061H55.5538V14.0181C55.5538 14.3505 55.6742 14.634 55.915 14.8684C56.1531 15.1042 56.4467 15.2227 56.7984 15.2227C57.1259 15.2227 57.41 15.1054 57.6481 14.8698C57.8875 14.634 58.0079 14.3505 58.0079 14.0181V11.6061H58.3638V14.0495C58.3556 14.4909 58.2082 14.8575 57.9201 15.1477C57.6318 15.438 57.2598 15.5824 56.8025 15.5824V15.5824ZM63.7551 15.5265H63.3979V14.7281C63.3289 14.8208 63.2546 14.9107 63.172 14.9952C62.7473 15.4244 62.2331 15.6383 61.631 15.6383C61.0303 15.6383 60.5176 15.4244 60.0928 14.9952C59.6667 14.5672 59.4542 14.0507 59.4542 13.4471C59.4542 12.8394 59.6667 12.3215 60.0928 11.8937C60.5176 11.4657 61.0303 11.2505 61.631 11.2505C62.2331 11.2505 62.7473 11.4657 63.172 11.8937C63.2546 11.9782 63.3289 12.0681 63.3979 12.1607V9.13822H63.7551V15.5265V15.5265ZM63.3979 13.8014V13.0914C63.3317 12.7398 63.1666 12.4319 62.9028 12.1649C62.551 11.8105 62.1275 11.6347 61.631 11.6347C61.1331 11.6347 60.7097 11.8105 60.3579 12.1649C60.0062 12.5192 59.8316 12.9456 59.8316 13.4471C59.8316 13.9472 60.0062 14.3737 60.3579 14.7268C60.7097 15.0783 61.1331 15.2555 61.631 15.2555C62.1275 15.2555 62.551 15.0783 62.9028 14.724C63.1666 14.4582 63.3317 14.1503 63.3979 13.8014V13.8014ZM65.3799 11.6061V15.5265H65.0228V11.6061H65.3799ZM65.2014 10.2176C65.2987 10.2176 65.3826 10.2516 65.453 10.3211C65.5234 10.3892 65.5585 10.4738 65.5585 10.5719C65.5585 10.6727 65.5234 10.7586 65.453 10.8281C65.3826 10.8975 65.2987 10.9316 65.2014 10.9316C65.104 10.9316 65.02 10.8975 64.9498 10.8281C64.8794 10.7586 64.8442 10.6727 64.8442 10.5719C64.8442 10.4738 64.8794 10.3892 64.9498 10.3211C65.02 10.2516 65.104 10.2176 65.2014 10.2176ZM68.5863 11.2505C69.1884 11.2505 69.7025 11.4657 70.1259 11.8937C70.5508 12.3215 70.7618 12.8394 70.7618 13.4471C70.7618 14.0507 70.5508 14.5672 70.1259 14.9952C69.7025 15.4244 69.1884 15.6383 68.5863 15.6383C67.9869 15.6383 67.4742 15.4244 67.048 14.9952C66.6233 14.5672 66.4109 14.0507 66.4109 13.4471C66.4109 12.8394 66.6233 12.3215 67.048 11.8937C67.4742 11.4657 67.9869 11.2505 68.5863 11.2505ZM68.5863 11.6347C68.0898 11.6347 67.6649 11.8105 67.3145 12.1648C66.9629 12.5192 66.787 12.9456 66.787 13.4471C66.787 13.9472 66.9629 14.3737 67.3145 14.7267C67.6649 15.0783 68.0898 15.2555 68.5863 15.2555C69.0829 15.2555 69.5076 15.0783 69.8594 14.7267C70.2098 14.3737 70.3857 13.9472 70.3857 13.4471C70.3857 12.9456 70.2098 12.5192 69.8594 12.1648C69.5076 11.8105 69.0829 11.6347 68.5863 11.6347ZM33.1104 8.86071C33.3443 8.8592 33.5673 8.82947 33.7811 8.77027C33.9948 8.71095 34.193 8.6267 34.3742 8.51905C34.5554 8.40989 34.7134 8.28188 34.8481 8.13376C34.9829 7.9855 35.0883 7.82321 35.1641 7.64384L34.6158 7.49408C34.5385 7.67041 34.4253 7.82321 34.2736 7.95591C34.1218 8.08696 33.9483 8.18992 33.75 8.26164C33.5519 8.33501 33.3443 8.37245 33.1289 8.37397C32.895 8.37245 32.6751 8.32716 32.4692 8.23824C32.2616 8.1478 32.0772 8.02143 31.9162 7.85914C31.7551 7.69684 31.6235 7.50495 31.5244 7.28346C31.4252 7.06349 31.3648 6.82177 31.3447 6.55802H35.4801C35.4847 6.53627 35.4894 6.50186 35.4925 6.45203C35.4972 6.40357 35.4987 6.35374 35.4987 6.30529C35.4957 5.96831 35.4351 5.65005 35.319 5.35051C35.2028 5.05111 35.0387 4.7842 34.8265 4.55335C34.6143 4.3225 34.3619 4.13997 34.0706 4.00892C33.7779 3.87636 33.4558 3.80919 33.1011 3.80616C32.748 3.80767 32.4242 3.87471 32.13 4.00576C31.8357 4.13681 31.5785 4.31782 31.3618 4.54716C31.1449 4.778 30.9761 5.04478 30.8568 5.34583C30.7375 5.64702 30.6771 5.96996 30.6756 6.31465C30.6771 6.66415 30.7375 6.99012 30.8568 7.2975C30.9776 7.60324 31.1449 7.87318 31.3633 8.10719C31.5817 8.3412 31.8372 8.52525 32.1346 8.65795C32.4304 8.79051 32.7556 8.85755 33.1104 8.86071H33.1104ZM31.3261 6.07127C31.3431 5.81234 31.4004 5.57516 31.498 5.35987C31.5941 5.14458 31.7226 4.95902 31.8822 4.79989C32.0417 4.64227 32.2259 4.52059 32.4335 4.43318C32.6395 4.34742 32.8625 4.30378 33.1011 4.30227C33.3396 4.30378 33.5627 4.3459 33.7686 4.43166C33.9762 4.51742 34.1604 4.63911 34.3216 4.79672C34.4827 4.95434 34.6128 5.14155 34.7119 5.35684C34.811 5.57213 34.873 5.81083 34.8946 6.07127H31.3261L31.3261 6.07127ZM65.2381 8.86071C65.4719 8.8592 65.695 8.82947 65.9087 8.77027C66.1225 8.71095 66.3208 8.6267 66.5018 8.51905C66.6832 8.40989 66.8412 8.28188 66.9758 8.13376C67.1107 7.9855 67.2159 7.82321 67.2918 7.64384L66.7435 7.49408C66.6661 7.67041 66.5531 7.82321 66.4013 7.95591C66.2494 8.08696 66.076 8.18992 65.8777 8.26164C65.6795 8.33501 65.4719 8.37245 65.2567 8.37397C65.0227 8.37245 64.8028 8.32716 64.5968 8.23824C64.3893 8.1478 64.205 8.02143 64.0439 7.85914C63.8829 7.69684 63.7512 7.50495 63.6521 7.28346C63.5528 7.06349 63.4926 6.82177 63.4724 6.55802H67.6077C67.6124 6.53627 67.617 6.50186 67.6202 6.45203C67.6248 6.40357 67.6265 6.35374 67.6265 6.30529C67.6233 5.96831 67.5629 5.65005 67.4467 5.35051C67.3306 5.05111 67.1663 4.7842 66.9542 4.55335C66.742 4.3225 66.4895 4.13997 66.1983 4.00892C65.9056 3.87636 65.5834 3.80919 65.2288 3.80616C64.8756 3.80767 64.5519 3.87471 64.2576 4.00576C63.9634 4.13681 63.7062 4.31782 63.4894 4.54716C63.2725 4.778 63.1038 5.04478 62.9845 5.34583C62.8653 5.64702 62.8049 5.96996 62.8032 6.31465C62.8049 6.66415 62.8653 6.99012 62.9845 7.2975C63.1053 7.60324 63.2725 7.87318 63.4909 8.10719C63.7093 8.3412 63.9649 8.52525 64.2623 8.65795C64.5582 8.79051 64.8834 8.85755 65.2381 8.86071H65.2381ZM63.4538 6.07127C63.4708 5.81234 63.5281 5.57516 63.6257 5.35987C63.7218 5.14458 63.8504 4.95902 64.0099 4.79989C64.1693 4.64227 64.3537 4.52059 64.5612 4.43318C64.7673 4.34742 64.9902 4.30378 65.2288 4.30227C65.4673 4.30378 65.6903 4.3459 65.8963 4.43166C66.1039 4.51742 66.2882 4.63911 66.4492 4.79672C66.6104 4.95434 66.7405 5.14155 66.8395 5.35684C66.9386 5.57213 67.0007 5.81083 67.0223 6.07127H63.4538L63.4538 6.07127ZM39.1296 8.86497C39.0048 8.88728 38.8757 8.89884 38.7422 8.89953H38.7417C38.6118 8.89884 38.4845 8.88659 38.3606 8.86305C38.2359 8.83937 38.114 8.80441 37.9954 8.75815H37.9953C37.8765 8.71135 37.7633 8.65629 37.6559 8.59242C37.5482 8.52841 37.4463 8.45586 37.3495 8.37424C37.2536 8.29357 37.1653 8.20616 37.0849 8.11242C37.0336 8.0524 36.9854 7.9899 36.9408 7.92507V8.7671V8.80606H36.9019H36.4837H36.4449V8.7671V1.93404V1.89495H36.4837H36.9484H36.9871V1.93404V4.83375C37.0424 4.75721 37.1 4.68384 37.1598 4.61363V4.6135C37.2455 4.51328 37.3361 4.41954 37.4321 4.33254H37.4322C37.5287 4.24568 37.6296 4.16832 37.7349 4.10073C37.8407 4.03314 37.952 3.97464 38.0689 3.92618L38.0688 3.92605C38.1858 3.87677 38.308 3.83974 38.4357 3.81482C38.5628 3.79004 38.6958 3.77738 38.8347 3.77655H38.8351C38.9754 3.77738 39.1098 3.79004 39.2384 3.81441C39.3673 3.83891 39.4905 3.87512 39.6082 3.92288H39.6083C39.7248 3.97037 39.8354 4.02722 39.9396 4.0933C40.0435 4.1591 40.1413 4.23426 40.233 4.31864C40.3249 4.40233 40.4098 4.49263 40.4874 4.58941C40.5646 4.68549 40.6348 4.78832 40.6976 4.89734H40.6974C40.7613 5.00678 40.817 5.11965 40.865 5.23556C40.9131 5.35202 40.9536 5.47233 40.9865 5.59635C41.0524 5.84455 41.0854 6.09604 41.0854 6.35208L41.0852 6.35236C41.0845 6.48974 41.0745 6.62436 41.0551 6.75582C41.0358 6.88591 41.0073 7.01365 40.969 7.13892C40.9303 7.2646 40.8836 7.38587 40.8289 7.50246C40.7748 7.61782 40.7125 7.72891 40.6421 7.83531V7.83545C40.5724 7.94117 40.4953 8.04097 40.4113 8.1343C40.3274 8.22749 40.2369 8.31408 40.1401 8.39323L40.14 8.39337C40.0423 8.47279 39.9398 8.54341 39.8326 8.60508H39.8325C39.7251 8.66689 39.6124 8.72002 39.4944 8.76449C39.3767 8.80908 39.2551 8.84254 39.1296 8.86497V8.86497ZM38.4441 8.38456C38.5136 8.39516 38.5818 8.40039 38.6491 8.40039V8.40066C38.7596 8.39984 38.8665 8.38993 38.9696 8.37079C39.0725 8.3518 39.1717 8.32344 39.267 8.28614L39.2672 8.286C39.3629 8.24924 39.4541 8.20519 39.5403 8.15399C39.6269 8.10264 39.7095 8.04359 39.7872 7.97765C39.8645 7.9113 39.9368 7.83986 40.0036 7.76332C40.0703 7.68692 40.1316 7.60543 40.187 7.5183C40.2426 7.43157 40.2918 7.34182 40.3345 7.24904C40.3774 7.15599 40.414 7.05963 40.4443 6.96024H40.4442C40.474 6.86086 40.4965 6.76023 40.5114 6.65878C40.5263 6.55788 40.5339 6.45546 40.5339 6.35208H40.5341C40.5333 6.21663 40.5218 6.08379 40.4997 5.95371C40.4775 5.82363 40.4447 5.69643 40.4014 5.57241C40.3582 5.44852 40.3056 5.33123 40.2437 5.22042C40.1821 5.11016 40.1109 5.00637 40.0304 4.90918L40.0302 4.90877C39.9506 4.81103 39.8634 4.72404 39.7687 4.64722C39.6742 4.57083 39.5717 4.50434 39.4616 4.44776C39.352 4.39132 39.2361 4.34865 39.1146 4.32002C38.9928 4.29125 38.8653 4.27624 38.7327 4.27556C38.6312 4.27624 38.5332 4.28505 38.4383 4.30226C38.3438 4.31933 38.2523 4.34493 38.1641 4.37907L38.1639 4.37921C38.0754 4.4128 37.9908 4.45272 37.9101 4.49869C37.8288 4.54522 37.7511 4.59808 37.6771 4.65714L37.677 4.65727C37.6022 4.7166 37.5316 4.77992 37.4654 4.84724C37.3994 4.91428 37.3368 4.98613 37.2779 5.06253V5.06239C37.2208 5.13741 37.1678 5.21519 37.1188 5.29531C37.0706 5.37446 37.0267 5.45512 36.9871 5.53703V7.13645C36.9954 7.20528 37.0106 7.27231 37.0329 7.33756C37.0554 7.4035 37.0852 7.46778 37.1225 7.53014L37.1227 7.53042C37.1594 7.59305 37.2019 7.65376 37.2499 7.71198C37.2983 7.77063 37.3516 7.82638 37.4094 7.87855L37.4097 7.87868C37.4682 7.93223 37.5298 7.98206 37.5942 8.02804C37.6587 8.07402 37.7262 8.11655 37.7968 8.15551C37.8685 8.19433 37.941 8.22929 38.014 8.25985C38.0858 8.28972 38.1576 8.3156 38.2292 8.33652V8.33666C38.302 8.35772 38.3734 8.37369 38.4441 8.38457L38.4441 8.38456ZM49.2644 5.33413C49.289 5.52891 49.3012 5.74049 49.3003 5.96831H49.3005V8.7671V8.80606H49.2617H48.7971H48.7583V8.7671V6.05255C48.7583 5.74929 48.7349 5.48513 48.6879 5.26062C48.6413 5.03803 48.5715 4.8544 48.4782 4.71027C48.386 4.56807 48.2708 4.46139 48.1327 4.39064C47.9938 4.31947 47.8312 4.28423 47.6449 4.28492C47.513 4.28561 47.3862 4.30199 47.2648 4.33365C47.1436 4.36545 47.0276 4.41266 46.9171 4.47502C46.8063 4.53765 46.7033 4.61254 46.6081 4.69912C46.5129 4.78598 46.4249 4.88551 46.3441 4.99742L46.344 4.9977C46.2633 5.10865 46.1929 5.22882 46.1325 5.35766C46.073 5.48527 46.0229 5.62182 45.9829 5.76732V8.76711V8.80606H45.9441H45.4794H45.4407V8.76711V6.05255H45.4409C45.4416 5.74503 45.4186 5.47853 45.3721 5.25277C45.3261 5.02936 45.2569 4.84655 45.1652 4.70408L45.1651 4.70394C45.0743 4.56257 44.9605 4.45699 44.8234 4.38747C44.6854 4.31754 44.5232 4.28341 44.3367 4.28492H44.3366C44.2081 4.28561 44.0836 4.30171 43.9634 4.33269C43.843 4.36366 43.7271 4.40977 43.6162 4.47048C43.5047 4.53242 43.4008 4.60607 43.3046 4.69155V4.69169C43.208 4.77759 43.1188 4.87546 43.0369 4.98531H43.037C42.9546 5.09667 42.8821 5.2174 42.8199 5.34734C42.7585 5.47509 42.7069 5.61219 42.6652 5.75838V8.76711V8.80607H42.6265H42.1618H42.123V8.76711V3.89977V3.86068H42.1618H42.5893H42.6281V3.89977V4.91057C42.6773 4.8266 42.7295 4.74704 42.7848 4.67174C42.8679 4.55859 42.9579 4.4548 43.0549 4.36023V4.36009C43.1518 4.26552 43.2542 4.18252 43.3614 4.11066C43.4684 4.0388 43.581 3.97796 43.6988 3.92786C43.8167 3.87761 43.9385 3.83962 44.0637 3.81443V3.81429C44.1883 3.7891 44.3164 3.77643 44.4479 3.77643L44.4481 3.77657C44.5868 3.7774 44.7164 3.79213 44.8371 3.82062C44.9586 3.84925 45.0717 3.89179 45.1768 3.94795L45.1771 3.94809C45.2815 4.00508 45.3755 4.07294 45.4597 4.15209C45.5436 4.23097 45.6179 4.32127 45.6824 4.42327H45.6825C45.7458 4.52349 45.7976 4.63279 45.8383 4.75062C45.8675 4.83541 45.8909 4.92461 45.9085 5.01822C46.0109 4.83803 46.1209 4.67753 46.2386 4.53657C46.3781 4.36959 46.5282 4.22987 46.6886 4.11727C46.8502 4.00412 47.0227 3.91877 47.2059 3.86178C47.3882 3.80507 47.5811 3.77643 47.7842 3.77643L47.7843 3.77657C47.9639 3.7774 48.1265 3.7997 48.2721 3.84333C48.419 3.88738 48.5488 3.95318 48.6611 4.04059C48.7738 4.12814 48.8709 4.23524 48.9527 4.36133C49.034 4.48687 49.1003 4.63127 49.1515 4.79439V4.79467C49.2018 4.95765 49.2395 5.13743 49.2644 5.33414V5.33413ZM52.2324 8.87269C52.1028 8.89058 51.9707 8.89981 51.8359 8.89981L51.8358 8.89953C51.7208 8.89884 51.6096 8.88852 51.5026 8.86897C51.3948 8.84915 51.291 8.81997 51.1918 8.78156H51.1914C51.0929 8.7426 51.0001 8.6958 50.9133 8.64115C50.8264 8.58623 50.7461 8.52387 50.6726 8.4538C50.5977 8.38387 50.5317 8.30775 50.4742 8.22612C50.4164 8.14394 50.3666 8.05598 50.3247 7.96251V7.96224C50.2832 7.86849 50.2522 7.77062 50.2314 7.66889C50.2105 7.56662 50.1996 7.45993 50.1989 7.34912V7.34885C50.1996 7.24024 50.2129 7.13631 50.2384 7.03692C50.264 6.93753 50.3021 6.84241 50.3524 6.75129L50.3525 6.75087C50.4035 6.66112 50.4646 6.57715 50.5359 6.49924C50.607 6.4216 50.6885 6.34988 50.7806 6.28436C50.8723 6.21911 50.9727 6.16088 51.0814 6.11023C51.1898 6.05957 51.3063 6.01635 51.4304 5.98069C51.5549 5.94531 51.6863 5.91875 51.8242 5.90085C51.9611 5.88323 52.1045 5.87415 52.254 5.87332L52.2541 5.87318C52.3414 5.87318 52.4303 5.87594 52.5199 5.88144C52.6096 5.88709 52.6987 5.89535 52.787 5.90622C52.8764 5.9171 52.9645 5.93017 53.0516 5.94531C53.1383 5.96046 53.224 5.9778 53.3082 5.99749H53.3084C53.3906 6.01676 53.4703 6.03823 53.547 6.06136C53.6064 6.07925 53.6644 6.09839 53.7208 6.11862V5.69685H53.721C53.7203 5.54667 53.7051 5.40612 53.6757 5.27562C53.6465 5.14581 53.603 5.02578 53.5457 4.91634C53.4885 4.80691 53.4191 4.70986 53.3379 4.62548C53.257 4.54151 53.164 4.46979 53.0594 4.41115L53.0592 4.41087C52.9541 4.35113 52.8392 4.30612 52.7145 4.2757C52.5895 4.24514 52.4545 4.22958 52.3099 4.22876V4.22889C52.1906 4.22889 52.0691 4.24115 51.9454 4.26565C51.821 4.29015 51.6941 4.32704 51.5645 4.37619H51.5644C51.4353 4.4245 51.305 4.48452 51.1739 4.55569C51.0433 4.62658 50.9118 4.70876 50.7802 4.80209L50.7459 4.82632L50.7247 4.78984L50.5388 4.47158L50.5204 4.44006L50.5506 4.41969C50.7079 4.31314 50.8626 4.21995 51.0144 4.14025C51.1671 4.06013 51.3178 3.99295 51.4666 3.93941C51.6142 3.88517 51.7607 3.84456 51.9058 3.81744C52.052 3.79005 52.196 3.77642 52.3378 3.77642L52.3379 3.77656C52.5355 3.77739 52.7197 3.79762 52.89 3.83727C53.0607 3.87705 53.218 3.93638 53.3613 4.01525V4.01512C53.5053 4.09317 53.6329 4.1887 53.7441 4.30116C53.8552 4.41363 53.9497 4.54316 54.0275 4.68949C54.1051 4.83609 54.1636 4.9966 54.203 5.171C54.2421 5.34445 54.262 5.53235 54.2628 5.73415L54.263 5.73429V8.10402C54.263 8.14023 54.2667 8.17134 54.274 8.19708C54.2807 8.22103 54.2905 8.24044 54.3029 8.25476L54.3033 8.25531C54.3152 8.26962 54.3304 8.28036 54.3485 8.28752C54.3679 8.29523 54.3917 8.29908 54.4195 8.29908H54.4581V8.33804V8.75775V8.79147L54.4249 8.79629C54.4089 8.79849 54.393 8.80056 54.3763 8.80207C54.3592 8.80372 54.3436 8.80455 54.3295 8.80455C54.2999 8.80606 54.2745 8.80606 54.2522 8.80606C54.2112 8.80606 54.1713 8.80097 54.1323 8.79133C54.0935 8.78156 54.0559 8.76724 54.0196 8.74907L54.0193 8.74866C53.9829 8.72994 53.9496 8.70737 53.9198 8.68135C53.8902 8.65533 53.8636 8.6256 53.8408 8.59256H53.841C53.8169 8.55801 53.7989 8.52139 53.7867 8.48216C53.7747 8.44307 53.7682 8.40108 53.7674 8.35593L53.7673 8.35524V8.06176C53.7099 8.12894 53.6492 8.1924 53.5851 8.25186C53.4957 8.33473 53.3992 8.41044 53.2958 8.47831C53.1921 8.54713 53.0833 8.6077 52.9697 8.65987C52.8553 8.71246 52.7364 8.75665 52.6131 8.79216C52.4899 8.82768 52.3629 8.85466 52.2324 8.87269V8.87269ZM51.6043 8.40783C51.7065 8.43329 51.8146 8.44664 51.9288 8.44733V8.4472C52.0475 8.4472 52.1628 8.43962 52.2745 8.42462C52.3872 8.40948 52.4975 8.38676 52.6047 8.35676C52.711 8.32688 52.812 8.29082 52.9071 8.24842C53.0017 8.20616 53.0905 8.15757 53.1729 8.10278L53.1733 8.10251C53.256 8.04868 53.3304 7.98935 53.3961 7.92521C53.4624 7.86051 53.5203 7.79044 53.5694 7.71597L53.5702 7.71459L53.5717 7.71267C53.5962 7.6828 53.6182 7.65293 53.637 7.62278C53.6554 7.59332 53.6711 7.56331 53.6834 7.53248C53.6959 7.50137 53.7054 7.47177 53.7117 7.44369C53.7177 7.4163 53.7208 7.38945 53.7208 7.36302V6.52925C53.6152 6.49084 53.5082 6.4567 53.4003 6.42697C53.2839 6.3949 53.1653 6.3675 53.0451 6.3452V6.34534C52.9223 6.32332 52.7991 6.30638 52.6761 6.29523C52.5561 6.2845 52.434 6.27885 52.3099 6.27885V6.27872C52.1501 6.2794 52.0003 6.29097 51.8608 6.31354C51.7218 6.33584 51.5931 6.36916 51.4746 6.41348C51.3566 6.45767 51.2519 6.51053 51.1606 6.57206C51.07 6.63304 50.9923 6.70269 50.9272 6.78102C50.8626 6.85948 50.8139 6.94387 50.7815 7.0343C50.7489 7.12488 50.7322 7.22193 50.7315 7.32558C50.7322 7.43158 50.7461 7.53248 50.7728 7.62787C50.7994 7.72341 50.8391 7.81343 50.8914 7.89782V7.89795C50.9443 7.9822 51.0062 8.05818 51.0777 8.12508C51.1481 8.19102 51.2276 8.24815 51.3167 8.29591H51.3169C51.4069 8.34506 51.5027 8.38264 51.6043 8.40783L51.6043 8.40783ZM57.7241 8.85328C57.558 8.88329 57.3794 8.89884 57.1889 8.89953L57.1887 8.8998C57.063 8.8998 56.9386 8.89265 56.8158 8.87833C56.6929 8.86415 56.5717 8.84282 56.452 8.81446H56.4518C56.3332 8.7861 56.2174 8.75086 56.1044 8.7086C55.9918 8.66634 55.8825 8.61734 55.7767 8.56131C55.6708 8.50515 55.5699 8.44196 55.4744 8.37203C55.3784 8.30183 55.2871 8.22419 55.2009 8.13981L55.1767 8.11613L55.1967 8.08888L55.429 7.77062L55.4543 7.73593L55.4861 7.7647C55.6135 7.87992 55.7435 7.97999 55.8759 8.0652C56.0096 8.15123 56.1465 8.22282 56.2863 8.28008V8.28022C56.4256 8.33611 56.5702 8.37795 56.7204 8.40562C56.8703 8.43343 57.0264 8.44719 57.1887 8.44719C57.327 8.44719 57.4565 8.43728 57.5763 8.41774C57.6967 8.39805 57.8084 8.36859 57.9107 8.32964C58.0126 8.29095 58.1033 8.2436 58.1824 8.18758C58.2607 8.13224 58.3278 8.06823 58.3833 7.9961L58.3836 7.99568C58.4392 7.92493 58.4812 7.84605 58.5095 7.75961C58.538 7.6722 58.5527 7.57721 58.5533 7.47535H58.5532C58.5532 7.4028 58.5456 7.33645 58.53 7.27671C58.5147 7.21752 58.4914 7.16384 58.4604 7.11593L58.4601 7.11566C58.4297 7.0672 58.3911 7.02233 58.3452 6.98103C58.2985 6.93918 58.2439 6.90105 58.1816 6.86678L58.1813 6.86664C58.1186 6.83154 58.0475 6.79822 57.9688 6.76684C57.8902 6.73532 57.8029 6.70517 57.7074 6.67654C57.6106 6.64763 57.5073 6.61886 57.3969 6.59009C57.2873 6.56146 57.1686 6.53227 57.0407 6.5024C56.9027 6.47019 56.7744 6.43812 56.6559 6.40618C56.537 6.37425 56.4268 6.34203 56.3254 6.30982H56.3253C56.2243 6.27775 56.1311 6.24279 56.0461 6.20466C55.9608 6.16666 55.8851 6.12592 55.8189 6.08242C55.7506 6.03864 55.6909 5.98895 55.6397 5.93375C55.5884 5.87814 55.5459 5.81688 55.5124 5.75026H55.5125C55.4785 5.68322 55.4532 5.60847 55.4367 5.52588C55.4203 5.44384 55.4122 5.35422 55.4122 5.25704L55.4123 5.25676C55.413 5.13287 55.4257 5.01669 55.4496 4.9085C55.4741 4.79823 55.5102 4.69623 55.5573 4.60276L55.5575 4.60263C55.6052 4.50985 55.6622 4.42464 55.728 4.34755V4.34741C55.794 4.27019 55.8694 4.20081 55.9533 4.13955C56.0362 4.07844 56.1261 4.02489 56.2226 3.97932C56.3195 3.93362 56.4226 3.89604 56.5314 3.86672V3.86686C56.6386 3.83685 56.7507 3.81427 56.8667 3.79913C56.9835 3.78399 57.1035 3.77642 57.2259 3.77642L57.226 3.77656C57.3545 3.77738 57.4774 3.78482 57.5946 3.79927C57.7126 3.814 57.8263 3.83575 57.9359 3.86521C58.0452 3.89453 58.1484 3.92949 58.2454 3.96996C58.3426 4.01071 58.4339 4.05724 58.5192 4.10982V4.10996C58.6039 4.16172 58.6811 4.21802 58.7508 4.27858C58.8207 4.33929 58.8831 4.40468 58.9382 4.47474L58.9599 4.50241L58.9348 4.52691L58.6746 4.77951L58.6452 4.80814L58.6185 4.7769C58.5665 4.71619 58.5093 4.66044 58.4467 4.61006V4.6102C58.3837 4.5594 58.3151 4.51384 58.2408 4.47378H58.2407C58.166 4.43317 58.0883 4.39752 58.0072 4.3671C57.9259 4.33667 57.8408 4.31093 57.7517 4.29028C57.6624 4.2695 57.5717 4.25422 57.4797 4.24403C57.388 4.23398 57.294 4.22889 57.198 4.22889C57.1085 4.22889 57.0221 4.23357 56.9393 4.24307C56.8575 4.25229 56.7783 4.26647 56.7023 4.28547C56.6265 4.30433 56.5549 4.32828 56.4878 4.35732C56.4209 4.38623 56.3588 4.42023 56.3012 4.45933C56.2442 4.49814 56.1937 4.54219 56.1495 4.59134C56.105 4.64103 56.0662 4.6965 56.0334 4.75721H56.0335C56.0018 4.81737 55.9777 4.88358 55.9615 4.95543C55.9451 5.02839 55.9363 5.10713 55.9356 5.19137H55.9358C55.9358 5.25855 55.9412 5.31967 55.9524 5.37418C55.9635 5.42787 55.9801 5.47591 56.0022 5.51762C56.0252 5.56029 56.0541 5.59966 56.089 5.63517C56.1242 5.67096 56.1658 5.70331 56.214 5.73208C56.2638 5.76154 56.3202 5.78962 56.3838 5.81605H56.3839C56.448 5.8429 56.5196 5.86822 56.5989 5.8919C56.6794 5.91627 56.7664 5.94091 56.8602 5.96555C56.953 5.99005 57.0562 6.01579 57.1696 6.04263V6.04277C57.3202 6.07732 57.4625 6.11256 57.5963 6.14794C57.7329 6.184 57.8611 6.22062 57.9806 6.25724H57.9809C58.0989 6.29413 58.2079 6.33405 58.3076 6.37672C58.4072 6.41926 58.4983 6.46496 58.5805 6.51355L58.581 6.51383C58.7459 6.61376 58.8712 6.73696 58.9568 6.88315L58.9569 6.88329C58.9998 6.95763 59.0324 7.04049 59.054 7.13148C59.0753 7.22192 59.0861 7.3209 59.0861 7.42854L59.0859 7.42868C59.0853 7.57845 59.0649 7.71844 59.0251 7.84839C58.9852 7.97861 58.9256 8.09906 58.8465 8.20932C58.7685 8.31931 58.674 8.41677 58.5637 8.5017C58.4534 8.58663 58.3273 8.65904 58.1856 8.71878C58.0448 8.77825 57.8908 8.82313 57.7241 8.85327V8.85328ZM60.6782 4.23977V2.36781V2.32871H60.7171H61.1243H61.1631V2.36781V4.23977H62.0319H62.0707V4.27887V4.69073V4.72969H62.0319H61.1631V8.76711V8.80607H61.1243H60.7171H60.6782V8.76711V4.72969H59.8093H59.7706V4.69073V4.27887V4.23977H59.8093H60.6782ZM70.8334 3.84911C70.8516 3.84732 70.8722 3.84484 70.8928 3.84223L70.9363 3.83672V3.88091V4.32085V4.35843L70.899 4.35981C70.7552 4.36518 70.6173 4.38321 70.4857 4.41391C70.3545 4.4446 70.2296 4.48783 70.1117 4.5433L70.1115 4.54358C69.9925 4.59919 69.8822 4.6665 69.7804 4.74483C69.6784 4.82316 69.5847 4.91304 69.499 5.01381H69.4991C69.4141 5.11471 69.3394 5.22525 69.275 5.34542C69.2114 5.46422 69.158 5.59265 69.115 5.73072V8.76711V8.80607H69.0761H68.6115H68.5728V8.76711V3.89977V3.86068H68.6115H69.0483H69.0871V3.89977V4.94898C69.1241 4.88387 69.1632 4.82124 69.2045 4.76122C69.2744 4.65935 69.3504 4.56451 69.432 4.47682L69.4323 4.47669C69.5148 4.38941 69.6016 4.3104 69.6926 4.24006C69.7833 4.16999 69.8784 4.10832 69.978 4.05574C70.0771 4.00219 70.1782 3.95952 70.2809 3.9273C70.3839 3.89496 70.489 3.87293 70.596 3.86095L70.5987 3.86068H70.6002C70.6324 3.86068 70.6615 3.86027 70.6859 3.85944C70.7129 3.85848 70.7385 3.85696 70.7625 3.85476L70.7637 3.85462C70.7895 3.85297 70.8128 3.85104 70.8334 3.84912V3.84911Z" fill="#252525"/>
</g>
<defs>
<clipPath id="clip0_0_45">
<rect width="71" height="18" fill="white"/>
</clipPath>
</defs>
</svg>
